<svg width="44" height="44" viewBox="0 0 44 44" fill="none" xmlns="http://www.w3.org/2000/svg">
<path d="M25.6667 3.66667H11C10.0275 3.66667 9.09492 4.05298 8.40729 4.74061C7.71965 5.42825 7.33334 6.36088 7.33334 7.33334V36.6667C7.33334 37.6391 7.71965 38.5718 8.40729 39.2594C9.09492 39.947 10.0275 40.3333 11 40.3333H33C33.9725 40.3333 34.9051 39.947 35.5927 39.2594C36.2804 38.5718 36.6667 37.6391 36.6667 36.6667V14.6667L25.6667 3.66667Z" stroke="black" stroke-width="2" stroke-linecap="round" stroke-linejoin="round"/>
<path d="M25.6667 3.66667V14.6667H36.6667" stroke="black" stroke-width="2" stroke-linecap="round" stroke-linejoin="round"/>
<path d="M29.3333 23.8333H14.6667" stroke="black" stroke-width="2" stroke-linecap="round" stroke-linejoin="round"/>
<path d="M29.3333 31.1667H14.6667" stroke="black" stroke-width="2" stroke-linecap="round" stroke-linejoin="round"/>
<path d="M18.3333 16.5H16.5H14.6667" stroke="black" stroke-width="2" stroke-linecap="round" stroke-linejoin="round"/>
</svg>
