<svg width="647" height="707" viewBox="0 0 647 707" fill="none" xmlns="http://www.w3.org/2000/svg">
<path d="M646 219.5C646 488.187 428.187 706 159.5 706C-109.187 706 -327 488.187 -327 219.5C-327 -49.1865 -109.187 -267 159.5 -267C428.187 -267 646 -49.1865 646 219.5Z" fill="#FDDCD7" fill-opacity="0.3"/>
<path d="M646 219.5C646 488.187 428.187 706 159.5 706C-109.187 706 -327 488.187 -327 219.5C-327 -49.1865 -109.187 -267 159.5 -267C428.187 -267 646 -49.1865 646 219.5Z" stroke="#C4C4C4"/>
<path d="M646 219.5C646 488.187 428.187 706 159.5 706C-109.187 706 -327 488.187 -327 219.5C-327 -49.1865 -109.187 -267 159.5 -267C428.187 -267 646 -49.1865 646 219.5Z" stroke="url(#paint0_linear)"/>
<defs>
<linearGradient id="paint0_linear" x1="173" y1="-317" x2="173" y2="657" gradientUnits="userSpaceOnUse">
<stop stop-color="white"/>
<stop offset="1" stop-color="white" stop-opacity="0"/>
</linearGradient>
</defs>
</svg>
